<svg width="600" height="600" version="1.1" xmlns="http://www.w3.org/2000/svg" xmlns:xlink="http://www.w3.org/1999/xlink">
  <defs>
    <radialGradient id="gradient1" spreadMethod="pad">
      <stop offset="0%" stop-color="red"/>
      <stop offset="25%" stop-color="yellow"/>
      <stop offset="50%" stop-color="green"/>
      <stop offset="75%" stop-color="violet"/>
      <stop offset="100%" stop-color="blue"/>
    </radialGradient>
    <radialGradient id="gradient2" cx="0.25" cy="0.25" r="0.25" xlink:href="#gradient1" />
    <radialGradient id="gradient3" fx="0.75" fy="0.75" xlink:href="#gradient1" />
    <radialGradient id="gradient4" cx="0.25" cy="0.25" r="0.25" fx="0.1" fy="0.1" xlink:href="#gradient1" />

    <radialGradient id="gradient5" spreadMethod="repeat" xlink:href="#gradient1" />
    <radialGradient id="gradient6" cx="0.25" cy="0.25" r="0.25" xlink:href="#gradient5" />
    <radialGradient id="gradient7" fx="0.75" fy="0.75" xlink:href="#gradient5" />
    <radialGradient id="gradient8" cx="0.25" cy="0.25" r="0.25" fx="0.1" fy="0.1" xlink:href="#gradient5" />

    <radialGradient id="gradient9" spreadMethod="reflect" xlink:href="#gradient1" />
    <radialGradient id="gradient10" cx="0.25" cy="0.25" r="0.25" xlink:href="#gradient9" />
    <radialGradient id="gradient11" fx="0.75" fy="0.75" xlink:href="#gradient9" />
    <radialGradient id="gradient12" cx="0.25" cy="0.25" r="0.25" fx="0.1" fy="0.1" xlink:href="#gradient9" />

    <!-- Need to specify exact position for userSpaceOnUse -->
    <radialGradient id="gradient13" cx="60" cy="390" r="50" gradientUnits="userSpaceOnUse" xlink:href="#gradient1" />
    <radialGradient id="gradient14" cx="145" cy="365" r="25" gradientUnits="userSpaceOnUse" xlink:href="#gradient1" />

    <!-- Specify position b/w 0-1 for objectBoundingBox which is default value -->
    <radialGradient id="gradient15" fx="0.75" fy="0.75" gradientUnits="objectBoundingBox" xlink:href="#gradient1" />
    <radialGradient id="gradient16" spreadMethod="repeat" gradientUnits="objectBoundingBox" xlink:href="#gradient1" />

    <!-- focal point(fx, fy) should be inside circle defined by cx and cy. Following is not right -->
    <radialGradient id="gradient17" spreadMethod="repeat" cx="0.25" cy="0.25" r="0.25" fx="0.75" fy="0.75" xlink:href="#gradient1" />
  </defs>

  <rect x="10" y="10" width="100" height="100" rx="15" ry="15" stroke-width="2" fill="url(#gradient1)"/>
  <rect x="120" y="10" width="100" height="100" rx="15" ry="15" stroke-width="2" fill="url(#gradient2)"/>
  <rect x="230" y="10" width="100" height="100" rx="15" ry="15" stroke-width="2" fill="url(#gradient3)"/>
  <rect x="340" y="10" width="100" height="100" rx="15" ry="15" stroke-width="2" fill="url(#gradient4)"/>

  <rect x="10" y="120" width="100" height="100" rx="15" ry="15" stroke-width="2" fill="url(#gradient5)"/>
  <rect x="120" y="120" width="100" height="100" rx="15" ry="15" stroke-width="2" fill="url(#gradient6)"/>
  <rect x="230" y="120" width="100" height="100" rx="15" ry="15" stroke-width="2" fill="url(#gradient7)"/>
  <rect x="340" y="120" width="100" height="100" rx="15" ry="15" stroke-width="2" fill="url(#gradient8)"/>

  <rect x="10" y="230" width="100" height="100" rx="15" ry="15" stroke-width="2" fill="url(#gradient9)"/>
  <rect x="120" y="230" width="100" height="100" rx="15" ry="15" stroke-width="2" fill="url(#gradient10)"/>
  <rect x="230" y="230" width="100" height="100" rx="15" ry="15" stroke-width="2" fill="url(#gradient11)"/>
  <rect x="340" y="230" width="100" height="100" rx="15" ry="15" stroke-width="2" fill="url(#gradient12)"/>

  <rect x="10" y="340" width="100" height="100" rx="15" ry="15" stroke-width="2" fill="url(#gradient13)"/>
  <rect x="120" y="340" width="100" height="100" rx="15" ry="15" stroke-width="2" fill="url(#gradient14)"/>
  <rect x="230" y="340" width="100" height="100" rx="15" ry="15" stroke-width="2" fill="url(#gradient15)"/>
  <!-- Work on stroke -->
  <rect x="340" y="340" width="100" height="100" rx="15" ry="15" stroke-width="2" stroke="url(#gradient16)" fill="transparent"/>

  <rect x="10" y="450" width="100" height="100" rx="15" ry="15" stroke-width="2" fill="black"/>
  <rect x="15" y="455" width="40" height="40" rx="5" ry="5" stroke-width="2" fill="url(#gradient1)"/>
  <rect x="60" y="455" width="40" height="40" rx="5" ry="5" stroke-width="2" fill="url(#gradient2)"/>
  <rect x="15" y="500" width="40" height="40" rx="5" ry="5" stroke-width="2" fill="url(#gradient3)"/>
  <rect x="60" y="500" width="40" height="40" rx="5" ry="5" stroke-width="2" fill="url(#gradient4)"/>

  <rect x="120" y="450" width="100" height="100" rx="15" ry="15" stroke-width="2" fill="black"/>
  <rect x="125" y="455" width="40" height="40" rx="5" ry="5" stroke-width="2" fill="url(#gradient5)"/>
  <rect x="170" y="455" width="40" height="40" rx="5" ry="5" stroke-width="2" fill="url(#gradient6)"/>
  <rect x="125" y="500" width="40" height="40" rx="5" ry="5" stroke-width="2" fill="url(#gradient7)"/>
  <rect x="170" y="500" width="40" height="40" rx="5" ry="5" stroke-width="2" fill="url(#gradient8)"/>

  <rect x="230" y="450" width="100" height="100" rx="15" ry="15" stroke-width="2" fill="black"/>
  <rect x="235" y="455" width="40" height="40" rx="5" ry="5" stroke-width="2" fill="url(#gradient9)"/>
  <rect x="280" y="455" width="40" height="40" rx="5" ry="5" stroke-width="2" fill="url(#gradient10)"/>
  <rect x="235" y="500" width="40" height="40" rx="5" ry="5" stroke-width="2" fill="url(#gradient11)"/>
  <rect x="280" y="500" width="40" height="40" rx="5" ry="5" stroke-width="2" fill="url(#gradient12)"/>

  <rect x="340" y="450" width="100" height="100" rx="15" ry="15" stroke-width="2" fill="url(#gradient17)"/>
</svg>